<mxfile host="Electron" agent="Mozilla/5.0 (Windows NT 10.0; Win64; x64) AppleWebKit/537.36 (KHTML, like Gecko) draw.io/24.7.17 Chrome/128.0.6613.36 Electron/32.0.1 Safari/537.36" version="24.7.17">
  <diagram name="Page-1" id="AZk95OX9XuEXJAPwW4u0">
    <mxGraphModel dx="620" dy="364" grid="0" gridSize="10" guides="1" tooltips="1" connect="1" arrows="1" fold="1" page="1" pageScale="1" pageWidth="3300" pageHeight="4681" math="0" shadow="0">
      <root>
        <mxCell id="0" />
        <mxCell id="1" parent="0" />
        <mxCell id="x74VEsBiofEAdmeR-jRO-24" value="" style="rounded=1;whiteSpace=wrap;html=1;fillColor=#fff2cc;strokeColor=#d6b656;" vertex="1" parent="1">
          <mxGeometry x="1479.5" y="2033" width="223" height="112" as="geometry" />
        </mxCell>
        <mxCell id="x74VEsBiofEAdmeR-jRO-16" value="" style="rounded=1;whiteSpace=wrap;html=1;fillColor=#d5e8d4;strokeColor=#82b366;" vertex="1" parent="1">
          <mxGeometry x="1276" y="1845" width="175" height="258" as="geometry" />
        </mxCell>
        <mxCell id="x74VEsBiofEAdmeR-jRO-1" value="" style="verticalLabelPosition=bottom;sketch=0;aspect=fixed;html=1;verticalAlign=top;strokeColor=none;align=center;outlineConnect=0;shape=mxgraph.citrix.laptop_1;" vertex="1" parent="1">
          <mxGeometry x="1501.5" y="2041" width="31" height="26.23" as="geometry" />
        </mxCell>
        <mxCell id="x74VEsBiofEAdmeR-jRO-2" value="" style="verticalLabelPosition=bottom;sketch=0;aspect=fixed;html=1;verticalAlign=top;strokeColor=none;align=center;outlineConnect=0;shape=mxgraph.citrix.laptop_1;" vertex="1" parent="1">
          <mxGeometry x="1571.5" y="2041" width="31" height="26.23" as="geometry" />
        </mxCell>
        <mxCell id="x74VEsBiofEAdmeR-jRO-3" value="" style="verticalLabelPosition=bottom;sketch=0;aspect=fixed;html=1;verticalAlign=top;strokeColor=none;align=center;outlineConnect=0;shape=mxgraph.citrix.laptop_1;" vertex="1" parent="1">
          <mxGeometry x="1641" y="2039" width="31" height="26.23" as="geometry" />
        </mxCell>
        <mxCell id="x74VEsBiofEAdmeR-jRO-7" value="" style="shape=image;verticalLabelPosition=bottom;labelBackgroundColor=default;verticalAlign=top;aspect=fixed;imageAspect=0;image=https://www.lemagit.fr/visuals/LeMagIT/hero_article/Splunk.jpg;clipPath=inset(18% 14.33% 15% 13.67%);" vertex="1" parent="1">
          <mxGeometry x="1382" y="1875.55" width="50" height="15.51" as="geometry" />
        </mxCell>
        <mxCell id="x74VEsBiofEAdmeR-jRO-11" value="" style="shape=image;verticalLabelPosition=bottom;labelBackgroundColor=default;verticalAlign=top;aspect=fixed;imageAspect=0;image=https://images.ctfassets.net/o7xu9whrs0u9/53l54BZpBUy05GsApbren/5af9b1c0fb7dcc29d66c85d8e6a72138/Suricata-logo.jpeg;clipPath=inset(17% 8% 17.67% 8%);" vertex="1" parent="1">
          <mxGeometry x="1631.5" y="2069" width="50" height="38.89" as="geometry" />
        </mxCell>
        <mxCell id="x74VEsBiofEAdmeR-jRO-12" value="" style="shape=image;verticalLabelPosition=bottom;labelBackgroundColor=default;verticalAlign=top;aspect=fixed;imageAspect=0;image=https://images.ctfassets.net/o7xu9whrs0u9/53l54BZpBUy05GsApbren/5af9b1c0fb7dcc29d66c85d8e6a72138/Suricata-logo.jpeg;clipPath=inset(17% 8% 17.67% 8%);" vertex="1" parent="1">
          <mxGeometry x="1492" y="2071" width="50" height="38.89" as="geometry" />
        </mxCell>
        <mxCell id="x74VEsBiofEAdmeR-jRO-13" value="" style="shape=image;verticalLabelPosition=bottom;labelBackgroundColor=default;verticalAlign=top;aspect=fixed;imageAspect=0;image=https://images.ctfassets.net/o7xu9whrs0u9/53l54BZpBUy05GsApbren/5af9b1c0fb7dcc29d66c85d8e6a72138/Suricata-logo.jpeg;clipPath=inset(17% 8% 17.67% 8%);" vertex="1" parent="1">
          <mxGeometry x="1562" y="2071" width="50" height="38.89" as="geometry" />
        </mxCell>
        <mxCell id="x74VEsBiofEAdmeR-jRO-14" value="" style="verticalLabelPosition=bottom;sketch=0;aspect=fixed;html=1;verticalAlign=top;strokeColor=none;align=center;outlineConnect=0;shape=mxgraph.citrix.firewall;fillColor=default;gradientColor=none;" vertex="1" parent="1">
          <mxGeometry x="1500" y="1820" width="35" height="43.4" as="geometry" />
        </mxCell>
        <mxCell id="x74VEsBiofEAdmeR-jRO-15" value="" style="verticalLabelPosition=bottom;sketch=0;aspect=fixed;html=1;verticalAlign=top;strokeColor=none;align=center;outlineConnect=0;shape=mxgraph.citrix.edgesight_server;" vertex="1" parent="1">
          <mxGeometry x="1390.85" y="1891.06" width="32.3" height="38" as="geometry" />
        </mxCell>
        <mxCell id="x74VEsBiofEAdmeR-jRO-17" value="Internet" style="ellipse;shape=cloud;whiteSpace=wrap;html=1;fillColor=#f8cecc;strokeColor=#b85450;" vertex="1" parent="1">
          <mxGeometry x="1587" y="1791.8000000000002" width="102" height="71.6" as="geometry" />
        </mxCell>
        <mxCell id="x74VEsBiofEAdmeR-jRO-18" value="" style="shape=image;verticalLabelPosition=bottom;labelBackgroundColor=default;verticalAlign=top;aspect=fixed;imageAspect=0;image=https://blog.hydrochain.org/post/2023/05/09/mise-en-place-bastion/ApacheGuacamoleLogo_hu75144a3c454d69910aa212cae3c9bcc7_114931_800x0_resize_box_3.PNG;clipPath=inset(27.88% 9% 29.65% 8.67%);" vertex="1" parent="1">
          <mxGeometry x="1290.71" y="1974.85" width="110.58" height="21.49" as="geometry" />
        </mxCell>
        <mxCell id="x74VEsBiofEAdmeR-jRO-23" value="" style="shape=image;verticalLabelPosition=bottom;labelBackgroundColor=default;verticalAlign=top;aspect=fixed;imageAspect=0;image=https://mapenda-dev.tech/storage/images/post_images/1706581869_ansble.png;clipPath=inset(12.05% 18.33% 22.82% 18.67%);" vertex="1" parent="1">
          <mxGeometry x="1297.5" y="1856.9999999999998" width="41" height="27.55" as="geometry" />
        </mxCell>
        <mxCell id="x74VEsBiofEAdmeR-jRO-25" value="&lt;font style=&quot;font-size: 10px;&quot;&gt;Zone Admin&lt;/font&gt;" style="text;html=1;align=center;verticalAlign=middle;resizable=0;points=[];autosize=1;strokeColor=#82b366;fillColor=#d5e8d4;" vertex="1" parent="1">
          <mxGeometry x="1322" y="2075.45" width="71" height="26" as="geometry" />
        </mxCell>
        <mxCell id="x74VEsBiofEAdmeR-jRO-26" value="&lt;font style=&quot;font-size: 10px;&quot;&gt;Zone Utilisateur&lt;/font&gt;" style="text;html=1;align=center;verticalAlign=middle;resizable=0;points=[];autosize=1;strokeColor=#d6b656;fillColor=#fff2cc;" vertex="1" parent="1">
          <mxGeometry x="1543.5" y="2116" width="88" height="26" as="geometry" />
        </mxCell>
        <mxCell id="x74VEsBiofEAdmeR-jRO-27" value="" style="verticalLabelPosition=bottom;sketch=0;aspect=fixed;html=1;verticalAlign=top;strokeColor=none;align=center;outlineConnect=0;shape=mxgraph.citrix.switch;" vertex="1" parent="1">
          <mxGeometry x="1496" y="1945.11" width="53" height="23.91" as="geometry" />
        </mxCell>
        <mxCell id="x74VEsBiofEAdmeR-jRO-29" value="" style="endArrow=none;html=1;rounded=0;" edge="1" parent="1" source="x74VEsBiofEAdmeR-jRO-2" target="x74VEsBiofEAdmeR-jRO-27">
          <mxGeometry width="50" height="50" relative="1" as="geometry">
            <mxPoint x="1405" y="2122" as="sourcePoint" />
            <mxPoint x="1455" y="2072" as="targetPoint" />
          </mxGeometry>
        </mxCell>
        <mxCell id="x74VEsBiofEAdmeR-jRO-30" value="" style="endArrow=none;html=1;rounded=0;" edge="1" parent="1" source="x74VEsBiofEAdmeR-jRO-3" target="x74VEsBiofEAdmeR-jRO-27">
          <mxGeometry width="50" height="50" relative="1" as="geometry">
            <mxPoint x="1415" y="2132" as="sourcePoint" />
            <mxPoint x="1465" y="2082" as="targetPoint" />
          </mxGeometry>
        </mxCell>
        <mxCell id="x74VEsBiofEAdmeR-jRO-31" value="" style="endArrow=none;html=1;rounded=0;" edge="1" parent="1" source="x74VEsBiofEAdmeR-jRO-19" target="x74VEsBiofEAdmeR-jRO-27">
          <mxGeometry width="50" height="50" relative="1" as="geometry">
            <mxPoint x="1425" y="2142" as="sourcePoint" />
            <mxPoint x="1475" y="2092" as="targetPoint" />
          </mxGeometry>
        </mxCell>
        <mxCell id="x74VEsBiofEAdmeR-jRO-32" value="" style="endArrow=none;html=1;rounded=0;" edge="1" parent="1" source="x74VEsBiofEAdmeR-jRO-1" target="x74VEsBiofEAdmeR-jRO-27">
          <mxGeometry width="50" height="50" relative="1" as="geometry">
            <mxPoint x="1435" y="2152" as="sourcePoint" />
            <mxPoint x="1485" y="2102" as="targetPoint" />
          </mxGeometry>
        </mxCell>
        <mxCell id="x74VEsBiofEAdmeR-jRO-33" value="" style="endArrow=none;html=1;rounded=0;" edge="1" parent="1" source="x74VEsBiofEAdmeR-jRO-15" target="x74VEsBiofEAdmeR-jRO-27">
          <mxGeometry width="50" height="50" relative="1" as="geometry">
            <mxPoint x="1435" y="2152" as="sourcePoint" />
            <mxPoint x="1485" y="2102" as="targetPoint" />
          </mxGeometry>
        </mxCell>
        <mxCell id="x74VEsBiofEAdmeR-jRO-34" value="" style="endArrow=none;html=1;rounded=0;" edge="1" parent="1" source="x74VEsBiofEAdmeR-jRO-14" target="x74VEsBiofEAdmeR-jRO-27">
          <mxGeometry width="50" height="50" relative="1" as="geometry">
            <mxPoint x="1445" y="2162" as="sourcePoint" />
            <mxPoint x="1495" y="2112" as="targetPoint" />
          </mxGeometry>
        </mxCell>
        <mxCell id="x74VEsBiofEAdmeR-jRO-35" value="" style="endArrow=none;dashed=1;html=1;rounded=0;" edge="1" parent="1" source="x74VEsBiofEAdmeR-jRO-20" target="x74VEsBiofEAdmeR-jRO-19">
          <mxGeometry width="50" height="50" relative="1" as="geometry">
            <mxPoint x="1367" y="2126" as="sourcePoint" />
            <mxPoint x="1417" y="2076" as="targetPoint" />
          </mxGeometry>
        </mxCell>
        <mxCell id="x74VEsBiofEAdmeR-jRO-36" value="" style="endArrow=none;dashed=1;html=1;rounded=0;" edge="1" parent="1" source="x74VEsBiofEAdmeR-jRO-20" target="x74VEsBiofEAdmeR-jRO-15">
          <mxGeometry width="50" height="50" relative="1" as="geometry">
            <mxPoint x="1377" y="2136" as="sourcePoint" />
            <mxPoint x="1427" y="2086" as="targetPoint" />
          </mxGeometry>
        </mxCell>
        <mxCell id="x74VEsBiofEAdmeR-jRO-28" value="&lt;span style=&quot;font-size: 8px;&quot;&gt;Pc Administration&lt;/span&gt;" style="text;html=1;align=center;verticalAlign=middle;resizable=0;points=[];autosize=1;strokeColor=none;fillColor=none;" vertex="1" parent="1">
          <mxGeometry x="1276" y="1903.06" width="80" height="26" as="geometry" />
        </mxCell>
        <mxCell id="x74VEsBiofEAdmeR-jRO-37" value="" style="endArrow=none;html=1;rounded=0;" edge="1" parent="1" source="x74VEsBiofEAdmeR-jRO-14" target="x74VEsBiofEAdmeR-jRO-17">
          <mxGeometry width="50" height="50" relative="1" as="geometry">
            <mxPoint x="1528" y="1873" as="sourcePoint" />
            <mxPoint x="1532" y="1955" as="targetPoint" />
          </mxGeometry>
        </mxCell>
        <mxCell id="x74VEsBiofEAdmeR-jRO-38" value="" style="shape=image;verticalLabelPosition=bottom;labelBackgroundColor=default;verticalAlign=top;aspect=fixed;imageAspect=0;image=https://www.geco-it.fr/wp-content/uploads/2021/11/logo_graylog.png;clipPath=inset(34% 15% 34.89% 13%);" vertex="1" parent="1">
          <mxGeometry x="1311" y="2047.62" width="60" height="19.44" as="geometry" />
        </mxCell>
        <mxCell id="x74VEsBiofEAdmeR-jRO-40" value="" style="verticalLabelPosition=bottom;sketch=0;aspect=fixed;html=1;verticalAlign=top;strokeColor=none;align=center;outlineConnect=0;shape=mxgraph.citrix.file_server;" vertex="1" parent="1">
          <mxGeometry x="1331.5" y="2008" width="29" height="39.62" as="geometry" />
        </mxCell>
        <mxCell id="x74VEsBiofEAdmeR-jRO-41" value="" style="endArrow=none;html=1;rounded=0;" edge="1" parent="1" source="x74VEsBiofEAdmeR-jRO-40">
          <mxGeometry width="50" height="50" relative="1" as="geometry">
            <mxPoint x="1371" y="1966" as="sourcePoint" />
            <mxPoint x="1506" y="1967" as="targetPoint" />
          </mxGeometry>
        </mxCell>
        <mxCell id="x74VEsBiofEAdmeR-jRO-42" value="" style="endArrow=none;dashed=1;html=1;rounded=0;" edge="1" parent="1" source="x74VEsBiofEAdmeR-jRO-20" target="x74VEsBiofEAdmeR-jRO-40">
          <mxGeometry width="50" height="50" relative="1" as="geometry">
            <mxPoint x="1331" y="1925" as="sourcePoint" />
            <mxPoint x="1345" y="1948" as="targetPoint" />
          </mxGeometry>
        </mxCell>
        <mxCell id="x74VEsBiofEAdmeR-jRO-20" value="" style="verticalLabelPosition=bottom;sketch=0;aspect=fixed;html=1;verticalAlign=top;strokeColor=none;align=center;outlineConnect=0;shape=mxgraph.citrix.laptop_1;" vertex="1" parent="1">
          <mxGeometry x="1297.4999999999998" y="1888.55" width="31" height="26.23" as="geometry" />
        </mxCell>
        <mxCell id="x74VEsBiofEAdmeR-jRO-44" value="&lt;font style=&quot;font-size: 8px;&quot;&gt;Switch Management&lt;/font&gt;" style="text;html=1;align=center;verticalAlign=middle;resizable=0;points=[];autosize=1;strokeColor=none;fillColor=none;" vertex="1" parent="1">
          <mxGeometry x="1546" y="1937.58" width="90" height="26" as="geometry" />
        </mxCell>
        <mxCell id="x74VEsBiofEAdmeR-jRO-45" value="" style="verticalLabelPosition=bottom;sketch=0;aspect=fixed;html=1;verticalAlign=top;strokeColor=none;align=center;outlineConnect=0;shape=mxgraph.citrix.license_server;" vertex="1" parent="1">
          <mxGeometry x="1409.5" y="2011.58" width="22.5" height="29.42" as="geometry" />
        </mxCell>
        <mxCell id="x74VEsBiofEAdmeR-jRO-48" value="" style="shape=image;verticalLabelPosition=bottom;labelBackgroundColor=default;verticalAlign=top;aspect=fixed;imageAspect=0;image=https://www.worteks.com/assets/images/illustrations_blog/bandeau-prometheus.svg;clipPath=inset(31% 4.67% 33% 5%);" vertex="1" parent="1">
          <mxGeometry x="1393" y="2045.51" width="49.75" height="13.21" as="geometry" />
        </mxCell>
        <mxCell id="x74VEsBiofEAdmeR-jRO-49" value="" style="endArrow=none;html=1;rounded=0;" edge="1" parent="1" source="x74VEsBiofEAdmeR-jRO-45" target="x74VEsBiofEAdmeR-jRO-27">
          <mxGeometry width="50" height="50" relative="1" as="geometry">
            <mxPoint x="1371" y="2032" as="sourcePoint" />
            <mxPoint x="1516" y="1977" as="targetPoint" />
          </mxGeometry>
        </mxCell>
        <mxCell id="x74VEsBiofEAdmeR-jRO-50" value="" style="endArrow=none;dashed=1;html=1;rounded=0;" edge="1" parent="1" source="x74VEsBiofEAdmeR-jRO-20" target="x74VEsBiofEAdmeR-jRO-45">
          <mxGeometry width="50" height="50" relative="1" as="geometry">
            <mxPoint x="1326" y="1925" as="sourcePoint" />
            <mxPoint x="1351" y="2018" as="targetPoint" />
          </mxGeometry>
        </mxCell>
        <mxCell id="x74VEsBiofEAdmeR-jRO-19" value="" style="verticalLabelPosition=bottom;sketch=0;aspect=fixed;html=1;verticalAlign=top;strokeColor=none;align=center;outlineConnect=0;shape=mxgraph.citrix.license_server;" vertex="1" parent="1">
          <mxGeometry x="1338.5" y="1937.58" width="28.5" height="37.27" as="geometry" />
        </mxCell>
      </root>
    </mxGraphModel>
  </diagram>
</mxfile>
